<?xml version="1.0" standalone="no"?>
<!DOCTYPE svg PUBLIC "-//W3C//DTD SVG 20010904//EN"
 "http://www.w3.org/TR/2001/REC-SVG-20010904/DTD/svg10.dtd">
<svg version="1.0" xmlns="http://www.w3.org/2000/svg"
 width="256.000000pt" height="256.000000pt" viewBox="0 0 256.000000 256.000000"
 preserveAspectRatio="xMidYMid meet">
<metadata>
Created by potrace 1.11, written by Peter Selinger 2001-2013
</metadata>
<g transform="translate(0.000000,256.000000) scale(0.100000,-0.100000)"
fill="#000000" stroke="none">
<path d="M1120 2461 c-193 -62 -318 -245 -326 -476 l-3 -100 13 55 c46 197
130 316 271 381 179 84 365 44 513 -109 59 -62 124 -183 143 -267 7 -30 15
-55 19 -55 10 0 -8 145 -26 197 -45 134 -136 257 -240 323 -106 67 -251 88
-364 51z"/>
<path d="M1168 2194 c-64 -20 -150 -100 -184 -171 -20 -42 -27 -76 -30 -137
l-4 -81 15 58 c18 70 37 110 81 164 77 95 230 127 339 71 87 -45 161 -141 191
-248 l12 -45 1 41 c1 62 -34 163 -76 219 -94 122 -217 168 -345 129z"/>
<path d="M1195 1981 c-82 -37 -125 -102 -131 -195 l-4 -61 14 48 c29 100 92
158 179 165 33 2 65 -2 89 -12 48 -20 107 -90 129 -152 16 -44 18 -46 18 -18
2 56 -30 126 -79 175 -69 69 -139 85 -215 50z"/>
<path d="M955 1709 c-121 -12 -191 -33 -211 -65 -48 -73 -74 -259 -52 -366 12
-58 12 -68 1 -68 -8 0 -25 -11 -38 -25 -51 -50 -23 -159 74 -290 97 -130 102
-136 132 -142 l29 -5 0 -147 -1 -146 -124 -128 c-90 -93 -125 -135 -125 -153
0 -18 5 -24 23 -24 15 0 60 40 154 137 l132 138 1 187 c0 175 -1 188 -19 198
-11 5 -31 10 -44 10 -18 0 -34 14 -61 53 -20 28 -52 74 -71 100 -38 53 -71
145 -56 160 5 5 19 7 32 5 19 -2 26 -16 45 -77 26 -85 78 -165 129 -200 110
-74 379 -79 523 -10 89 43 193 149 260 266 61 104 62 105 118 121 73 21 112
16 145 -19 36 -38 45 -84 29 -149 -23 -95 -103 -169 -185 -170 -52 -1 -59 -12
-66 -108 -6 -84 -35 -200 -47 -188 -3 3 1 85 8 181 10 134 11 178 2 187 -8 8
-15 8 -21 3 -15 -15 -31 -223 -31 -390 0 -178 -7 -162 140 -323 78 -86 107
-112 124 -110 45 6 28 41 -80 158 -57 63 -108 126 -111 140 -4 14 1 44 11 70
52 135 66 183 72 248 7 69 8 72 33 72 67 1 162 77 197 157 39 93 34 189 -12
250 -30 40 -92 73 -135 73 l-31 0 6 53 c13 102 -28 286 -69 313 -11 7 -64 17
-117 23 -113 13 -581 12 -713 0z m575 -59 c44 -4 -52 -7 -235 -6 -178 0 -269
2 -215 6 132 9 361 9 450 0z m241 -77 c15 -41 19 -232 6 -273 -4 -14 -21 -34
-39 -45 -21 -13 -50 -52 -82 -110 -66 -116 -158 -210 -251 -256 l-70 -34 -150
0 c-179 0 -231 12 -282 64 -49 50 -65 86 -112 245 -47 158 -52 243 -23 356
l17 65 90 -5 c50 -3 243 -4 430 -4 268 2 351 5 390 17 28 8 53 15 57 16 3 0
12 -16 19 -36z"/>
<path d="M1808 1185 c-34 -19 -48 -44 -48 -84 0 -71 44 -118 100 -106 61 13
94 124 53 174 -24 28 -71 35 -105 16z m78 -60 c3 -14 1 -39 -6 -56 -27 -64
-96 -11 -71 54 8 21 17 27 41 27 23 0 31 -5 36 -25z"/>
</g>
</svg>
